HIERARCHY
ROOT Hips
{
	OFFSET 0.000000 0.000000 0.000000
	CHANNELS 6 Xposition Yposition Zposition Zrotation Yrotation Xrotation 
	JOINT LHipJoint
	{
		OFFSET 0.000000 0.000000 0.000000
		CHANNELS 3 Zrotation Yrotation Xrotation
		JOINT LeftUpLeg
		{
			OFFSET 1.363060 -1.794630 0.839290
			CHANNELS 3 Zrotation Yrotation Xrotation
			JOINT LeftLeg
			{
				OFFSET 2.448110 -6.726130 0.000000
				CHANNELS 3 Zrotation Yrotation Xrotation
				JOINT LeftFoot
				{
					OFFSET 2.562200 -7.039590 0.000000
					CHANNELS 3 Zrotation Yrotation Xrotation
					JOINT LeftToeBase
					{
						OFFSET 0.157640 -0.433110 2.322550
						CHANNELS 3 Zrotation Yrotation Xrotation
						End Site
						{
							OFFSET 0.000000 0.000000 0.000000
						}
					}
				}
			}
		}
	}
	JOINT RHipJoint
	{
		OFFSET 0.000000 0.000000 0.000000
		CHANNELS 3 Zrotation Yrotation Xrotation
		JOINT RightUpLeg
		{
			OFFSET -1.305520 -1.794630 0.839290
			CHANNELS 3 Zrotation Yrotation Xrotation
			JOINT RightLeg
			{
				OFFSET -2.542530 -6.985550 0.000000
				CHANNELS 3 Zrotation Yrotation Xrotation
				JOINT RightFoot
				{
					OFFSET -2.568260 -7.056230 0.000000
					CHANNELS 3 Zrotation Yrotation Xrotation
					JOINT RightToeBase
					{
						OFFSET -0.164730 -0.452590 2.363150
						CHANNELS 3 Zrotation Yrotation Xrotation
						End Site
						{
							OFFSET 0.000000 0.000000 0.000000
						}
					}
				}
			}
		}
	}
	JOINT LowerBack
	{
		OFFSET 0.000000 0.000000 0.000000
		CHANNELS 3 Zrotation Yrotation Xrotation
		JOINT Spine
		{
			OFFSET 0.028270 2.035590 -0.193380
			CHANNELS 3 Zrotation Yrotation Xrotation
			JOINT Spine1
			{
				OFFSET 0.056720 2.048850 -0.042750
				CHANNELS 3 Zrotation Yrotation Xrotation
				JOINT Neck
				{
					OFFSET 0.000000 0.000000 0.000000
					CHANNELS 3 Zrotation Yrotation Xrotation
					JOINT Neck1
					{
						OFFSET -0.054170 1.746240 0.172020
						CHANNELS 3 Zrotation Yrotation Xrotation
						JOINT Head
						{
							OFFSET 0.104070 1.761360 -0.123970
							CHANNELS 3 Zrotation Yrotation Xrotation
							End Site
							{
								OFFSET 0.000000 0.000000 0.000000
							}
						}
					}
				}
				JOINT LeftShoulder
				{
					OFFSET 0.000000 0.000000 0.000000
					CHANNELS 3 Zrotation Yrotation Xrotation
					JOINT LeftArm
					{
						OFFSET 3.362410 1.200890 -0.311210
						CHANNELS 3 Zrotation Yrotation Xrotation
						JOINT LeftForeArm
						{
							OFFSET 4.983000 -0.000000 -0.000000
							CHANNELS 3 Zrotation Yrotation Xrotation
							JOINT LeftHand
							{
								OFFSET 3.483560 -0.000000 -0.000000
								CHANNELS 3 Zrotation Yrotation Xrotation
								JOINT LeftFingerBase
								{
									OFFSET 0.000000 0.000000 0.000000
									CHANNELS 3 Zrotation Yrotation Xrotation
									JOINT LeftHandIndex1
									{
										OFFSET 0.715260 -0.000000 -0.000000
										CHANNELS 3 Zrotation Yrotation Xrotation
										End Site
										{
											OFFSET 0.000000 0.000000 0.000000
										}
									}
								}
								JOINT LThumb
								{
									OFFSET 0.000000 0.000000 0.000000
									CHANNELS 3 Zrotation Yrotation Xrotation
									End Site
									{
										OFFSET 0.000000 0.000000 0.000000
									}
								}
							}
						}
					}
				}
				JOINT RightShoulder
				{
					OFFSET 0.000000 0.000000 0.000000
					CHANNELS 3 Zrotation Yrotation Xrotation
					JOINT RightArm
					{
						OFFSET -3.136600 1.374050 -0.404650
						CHANNELS 3 Zrotation Yrotation Xrotation
						JOINT RightForeArm
						{
							OFFSET -5.241900 -0.000000 -0.000000
							CHANNELS 3 Zrotation Yrotation Xrotation
							JOINT RightHand
							{
								OFFSET -3.444170 -0.000000 -0.000000
								CHANNELS 3 Zrotation Yrotation Xrotation
								JOINT RightFingerBase
								{
									OFFSET 0.000000 0.000000 0.000000
									CHANNELS 3 Zrotation Yrotation Xrotation
									JOINT RightHandIndex1
									{
										OFFSET -0.622530 -0.000000 -0.000000
										CHANNELS 3 Zrotation Yrotation Xrotation
										End Site
										{
											OFFSET 0.000000 0.000000 0.000000
										}
									}
								}
								JOINT RThumb
								{
									OFFSET 0.000000 0.000000 0.000000
									CHANNELS 3 Zrotation Yrotation Xrotation
									End Site
									{
										OFFSET 0.000000 0.000000 0.000000
									}
								}
							}
						}
					}
				}
			}
		}
	}
}
MOTION
Frames: 12
Frame Time: 0.008333
1.420585 17.199316 1.006304 -43.016763 80.361345 -29.233521 -10.415754 -0.106387 3.476739 -0.897146 -4.061122 -43.692409 0.617328 2.162305 51.993614 3.290522 17.684052 -8.835300 0.104500 -0.000000 -22.143600 7.397247 -1.973145 4.273283 20.628645 8.016201 -4.865566 4.500627 2.445392 -3.161359 0.350798 3.780650 -6.048759 -0.023499 -0.000000 -0.456201 3.300719 -0.215584 -8.372578 -0.484617 -0.926540 -4.588206 -7.892872 -0.975046 -0.076071 12.322121 -7.507829 -6.133752 -4.317477 -0.362248 0.457929 0.000000 0.000000 0.000000 -2.703022 8.019753 1.482871 -60.722372 8.227327 1.969272 -2.883609 -31.434771 0.009622 12.608793 -0.653205 -0.068169 -0.074965 -0.035415 -0.000000 0.000000 0.000000 0.000000 0.000000 0.000000 0.000000 20.658629 -2.416807 -1.170165 70.115595 9.121772 25.475755 0.881232 63.354402 -0.021018 -7.877600 10.152020 -0.732696 0.114665 -0.333380 0.000000 0.000000 0.000000 0.000000 0.000000 0.000000 0.000000 
1.646506 17.180582 1.037735 -40.975954 80.309367 -27.144442 -10.286601 -0.218425 3.612036 -1.042592 -3.787664 -44.499677 0.467810 1.957879 48.660127 3.356749 17.699639 -8.461445 0.294900 -0.000000 -23.167400 7.387588 -2.013182 4.108722 20.514082 7.622113 -4.213047 4.480203 2.409392 -2.643302 0.337968 4.127413 -6.888846 179.999400 -0.000000 -0.299500 2.867028 0.192462 -8.379781 -0.606683 -0.472404 -4.605119 -7.873561 -0.519872 -0.091956 12.249330 -7.127031 -6.125265 -4.266040 -0.358271 0.455426 0.000000 0.000000 0.000000 -2.711452 8.802906 1.535871 -59.452871 8.508573 0.764022 -2.977999 -30.998288 0.010379 12.740079 -0.251683 -0.023173 -0.078244 -0.040850 -0.000000 0.000000 0.000000 0.000000 0.000000 0.000000 0.000000 20.296222 -1.679161 -1.172126 70.058737 9.831123 27.703003 0.825745 65.166150 -0.021967 -7.640694 10.467652 -0.733905 0.114220 -0.356747 -0.000000 0.000000 0.000000 0.000000 0.000000 0.000000 0.000000 
1.873793 17.156331 1.064082 -39.386296 80.174042 -25.530654 -10.193652 -0.340065 3.719158 -1.153117 -3.307374 -45.149850 0.317607 1.731603 45.091272 3.406182 17.645322 -7.971545 0.525200 -0.000000 -24.291000 7.341764 -2.069702 3.957244 20.508991 7.286824 -3.458241 4.473978 2.383474 -2.230910 0.314961 4.428196 -7.724187 -179.985400 0.000000 -1.241699 2.583144 0.605890 -8.364271 -0.696413 -0.028251 -4.616819 -7.846721 -0.073073 -0.100407 12.127544 -6.722032 -6.122370 -4.208445 -0.353701 0.451713 0.000000 0.000000 0.000000 -2.770016 9.642579 1.585455 -58.211049 8.718623 -0.489364 -3.064251 -30.619253 0.010972 12.901321 0.090742 0.016021 -0.081468 -0.045180 -0.000000 0.000000 0.000000 0.000000 0.000000 0.000000 0.000000 19.842861 -0.923178 -1.171489 69.987559 10.594719 29.777374 0.774254 66.969214 -0.022679 -7.345278 10.688563 -0.721631 0.112821 -0.379495 -0.000000 0.000000 0.000000 0.000000 0.000000 0.000000 0.000000 
2.102527 17.126795 1.085457 -38.304276 79.973275 -24.452226 -10.133580 -0.466072 3.800690 -1.249230 -2.632226 -45.661759 0.160622 1.485800 41.324725 3.423724 17.452122 -7.402143 0.775901 0.000000 -25.457900 7.271234 -2.142251 3.810021 20.604939 6.963543 -2.610539 4.482361 2.364401 -1.902802 0.286869 4.711019 -8.554946 -179.976500 0.000000 -2.343200 2.445615 1.020618 -8.321916 -0.754221 0.402490 -4.622127 -7.812498 0.361791 -0.101016 11.960250 -6.295880 -6.124116 -4.144670 -0.348549 0.447122 0.000000 0.000000 0.000000 -2.873403 10.530717 1.630680 -57.003215 8.866540 -1.778462 -3.141746 -30.298429 0.011455 13.073653 0.362185 0.047914 -0.084604 -0.048585 -0.000000 0.000000 0.000000 0.000000 0.000000 0.000000 0.000000 19.302478 -0.155726 -1.170012 69.911166 11.403462 31.692491 0.726417 68.744891 -0.023035 -6.979252 10.808792 -0.694578 0.110083 -0.400978 -0.000000 0.000000 0.000000 0.000000 0.000000 0.000000 0.000000 
2.332748 17.092428 1.102298 -37.692496 79.728099 -23.874787 -10.103565 -0.589742 3.860167 -1.360483 -1.778844 -46.059680 -0.012604 1.223298 37.398027 3.392743 17.046802 -6.787395 1.023000 -0.000000 -26.654700 7.186317 -2.229898 3.658578 20.779893 6.604025 -1.684214 4.504601 2.348592 -1.636900 0.259329 5.008795 -9.366072 -179.972900 0.000000 -3.515599 2.437556 1.431869 -8.251109 -0.783445 0.817106 -4.620492 -7.771991 0.781684 -0.093741 11.755015 -5.853099 -6.129248 -4.075428 -0.342883 0.442010 0.000000 0.000000 0.000000 -3.014378 11.457231 1.670488 -55.829982 8.964569 -3.083726 -3.210167 -30.040632 0.011873 13.238261 0.559734 0.071909 -0.087674 -0.051275 -0.000000 0.000000 0.000000 0.000000 0.000000 0.000000 0.000000 18.687422 0.614967 -1.169421 69.835204 12.247928 33.446760 0.681880 70.476798 -0.022951 -6.542132 10.832639 -0.653647 0.105800 -0.420702 -0.000000 0.000000 0.000000 0.000000 0.000000 0.000000 0.000000 
2.564588 17.053755 1.115196 -37.458772 79.460546 -23.708382 -10.100683 -0.704671 3.900911 -1.522940 -0.768306 -46.368377 -0.213908 0.946383 33.349049 3.296045 16.357315 -6.154390 1.240001 -0.000000 -27.911400 7.096277 -2.331945 3.495805 21.000844 6.163846 -0.694795 4.538864 2.332264 -1.414324 0.237984 5.356292 -10.129139 -179.974201 -0.000000 -4.618200 2.532626 1.834253 -8.151856 -0.789467 1.213255 -4.611767 -7.727146 1.183824 -0.078776 11.522294 -5.399415 -6.136576 -4.002040 -0.336823 0.436664 0.000000 0.000000 0.000000 -3.184793 12.410849 1.703984 -54.687056 9.026414 -4.381316 -3.269608 -29.852174 0.012259 13.378681 0.688375 0.088105 -0.090737 -0.053464 -0.000000 0.000000 0.000000 0.000000 0.000000 0.000000 0.000000 18.016746 1.379716 -1.170991 69.761726 13.119395 35.043783 0.640404 72.149901 -0.022394 -6.044605 10.772915 -0.601639 0.099988 -0.438366 -0.000000 0.000000 0.000000 0.000000 0.000000 0.000000 0.000000 
2.798038 17.011408 1.124870 -37.489393 79.191737 -23.843698 -10.120722 -0.806263 3.924696 -1.773095 0.373095 -46.606921 -0.455207 0.656383 29.216729 3.117415 15.321418 -5.511241 1.403500 -0.000000 -29.361400 7.010013 -2.447666 3.315575 21.228058 5.605175 0.346834 4.582330 2.311580 -1.222359 0.228904 5.787110 -10.806222 -179.981100 -0.000000 -5.492400 2.699702 2.222023 -8.022921 -0.778657 1.588778 -4.594737 -7.680157 1.565746 -0.053039 11.274972 -4.944017 -6.148253 -3.926068 -0.330452 0.430327 0.000000 0.000000 0.000000 -3.373341 13.395373 1.729952 -53.571114 9.038735 -5.644066 -3.321164 -29.720900 0.012617 13.484204 0.755912 0.097103 -0.093903 -0.055248 -0.000000 0.000000 0.000000 0.000000 0.000000 0.000000 0.000000 17.315356 2.125993 -1.176533 69.687789 14.017631 36.494150 0.601786 73.749861 -0.021407 -5.508973 10.649739 -0.542953 0.092932 -0.453869 -0.000000 0.000000 0.000000 0.000000 0.000000 0.000000 0.000000 
3.033127 16.966168 1.132002 -37.673168 78.939852 -24.174081 -10.157060 -0.893221 3.932250 -2.142920 1.612420 -46.789531 -0.747295 0.353790 25.053702 2.844759 13.888102 -4.882732 1.485700 0.000000 -30.912200 6.935471 -2.576328 3.115533 21.419514 4.906088 1.434624 4.631195 2.283313 -1.058042 0.237393 6.325715 -11.351505 -179.994500 0.000000 -5.937600 2.910102 2.590520 -7.864456 -0.757145 1.942176 -4.571970 -7.634616 1.925152 -0.027429 11.021934 -4.482520 -6.153055 -3.850392 -0.324140 0.426100 0.000000 0.000000 0.000000 -3.580629 14.356490 1.750399 -52.469007 9.081609 -6.855387 -3.363491 -29.696471 0.012982 13.545272 0.789590 0.101703 -0.097128 -0.056982 -0.000000 0.000000 0.000000 0.000000 0.000000 0.000000 0.000000 16.604559 2.857172 -1.183115 69.611904 14.918914 37.796941 0.566131 75.265895 -0.020067 -4.956714 10.489111 -0.481884 0.084943 -0.467425 -0.000000 0.000000 0.000000 0.000000 0.000000 0.000000 0.000000 
3.269990 16.918640 1.137087 -37.934539 78.715780 -24.622077 -10.201929 -0.968396 3.925118 -2.642803 2.905673 -46.929764 -1.091394 0.039610 20.920651 2.474470 12.045760 -4.240284 1.479700 -0.000000 -32.870800 6.878049 -2.716142 2.898824 21.541632 4.073245 2.564559 4.681348 2.245936 -0.928287 0.267192 6.977553 -11.722248 179.985499 0.000000 -5.786500 3.140496 2.936587 -7.680703 -0.729684 2.272660 -4.540705 -7.591665 2.261501 0.011129 10.776017 -4.032746 -6.163001 -3.775875 -0.317800 0.420417 0.000000 0.000000 0.000000 -3.789686 15.342702 1.762223 -51.387295 9.071490 -7.993706 -3.399699 -29.714910 0.013307 13.566932 0.791312 0.102307 -0.100565 -0.058467 -0.000000 0.000000 0.000000 0.000000 0.000000 0.000000 0.000000 15.910645 3.553213 -1.194558 69.523711 15.841976 38.980358 0.533300 76.685636 -0.018526 -4.424463 10.317743 -0.423627 0.076763 -0.479245 0.000000 0.000000 0.000000 0.000000 0.000000 0.000000 0.000000 
3.507762 16.869678 1.140666 -38.174015 78.535918 -25.118376 -10.243272 -1.037934 3.895161 -3.279186 4.203547 -46.992885 -1.483438 -0.283364 16.906362 2.013726 9.800449 -3.626406 1.366400 0.000000 -34.904500 6.848671 -2.864632 2.650157 21.546269 3.055078 3.770543 4.728443 2.196915 -0.849634 0.325999 7.789154 -11.877109 179.959200 -0.000000 -4.984100 3.367026 3.254967 -7.443831 -0.701023 2.578777 -4.501250 -7.554470 2.572429 0.039447 10.538013 -3.580160 -6.157357 -3.706138 -0.311937 0.418881 0.000000 0.000000 0.000000 -4.016001 16.253246 1.771980 -50.307711 9.153227 -9.050237 -3.426364 -29.870047 0.013650 13.547627 0.796870 0.103112 -0.103966 -0.060216 -0.000000 0.000000 0.000000 0.000000 0.000000 0.000000 0.000000 15.247129 4.230234 -1.202539 69.424613 16.758200 40.034019 0.503629 77.995141 -0.016865 -3.920410 10.164981 -0.370179 0.068590 -0.489878 0.000000 0.000000 0.000000 0.000000 0.000000 0.000000 0.000000 
3.747155 16.819742 1.142757 -38.408748 78.393438 -25.648429 -10.274701 -1.111794 3.854156 -3.998532 5.438043 -47.017877 -1.900233 -0.608866 13.107198 1.488786 7.231762 -3.007034 1.163600 0.000000 -37.403100 6.841230 -3.018000 2.394046 21.437373 1.951433 5.035684 4.768226 2.140469 -0.847456 0.411271 8.694412 -11.798212 179.930200 0.000000 -3.491600 3.588814 3.548269 -7.186559 -0.671538 2.861759 -4.452934 -7.521964 2.860007 0.083432 10.317965 -3.150627 -6.159350 -3.640270 -0.306233 0.415002 0.000000 0.000000 0.000000 -4.233778 17.189450 1.772787 -49.257428 9.166918 -10.025292 -3.448113 -30.039149 0.013928 13.506894 0.792290 0.102419 -0.107498 -0.061702 -0.000000 0.000000 0.000000 0.000000 0.000000 0.000000 0.000000 14.632102 4.860916 -1.214576 69.299537 17.698069 41.001584 0.476848 79.188680 -0.015288 -3.483806 10.051810 -0.325631 0.061349 -0.499551 -0.000000 0.000000 0.000000 0.000000 0.000000 0.000000 0.000000 
3.987341 16.769612 1.143798 -38.575130 78.300018 -26.170212 -10.286827 -1.195854 3.800136 -4.759195 6.540950 -46.962366 -2.316041 -0.927814 9.628043 0.936793 4.442019 -2.441764 0.880099 -0.000000 -39.992000 6.863627 -3.173238 2.117626 21.179966 0.726354 6.397871 4.796100 2.077029 -0.958018 0.533244 9.722751 -11.448296 179.901700 0.000000 -1.253400 3.789461 3.812629 -6.887920 -0.644348 3.120419 -4.397030 -7.495825 3.122337 0.122057 10.113428 -2.729680 -6.150696 -3.581333 -0.301134 0.413761 0.000000 0.000000 0.000000 -4.455826 18.060711 1.771128 -48.227053 9.244037 -10.921149 -3.461765 -30.301258 0.014204 13.449502 0.802437 0.103427 -0.110887 -0.063363 -0.000000 0.000000 0.000000 0.000000 0.000000 0.000000 0.000000 14.073618 5.462561 -1.222640 69.151633 18.634177 41.874664 0.453224 80.254421 -0.013822 -3.108364 9.997231 -0.289083 0.055029 -0.508758 -0.000000 0.000000 0.000000 0.000000 0.000000 0.000000 0.000000 
